<svg xmlns="http://www.w3.org/2000/svg" viewBox="0 0 192 192" width="192" height="192">
  <rect width="192" height="192" fill="#FFF9F5" rx="32"/>
  <g transform="translate(96,96) scale(1.6)">
    <ellipse cx="0" cy="8" rx="22" ry="16" fill="rgba(255,153,51,0.18)"/>
    <path d="M0,18 C-14,13 -20,5 -16,-4 C-12,-2 -6,8 0,18Z" fill="#CC7A1F" opacity="0.5"/>
    <path d="M0,18 C14,13 20,5 16,-4 C12,-2 6,8 0,18Z" fill="#CC7A1F" opacity="0.5"/>
    <path d="M0,18 C-12,11 -16,3 -12,-5 C-9,-3 -4,9 0,18Z" fill="#FF9933"/>
    <path d="M0,18 C12,11 16,3 12,-5 C9,-3 4,9 0,18Z" fill="#FF9933"/>
    <path d="M0,18 C-8,8 -10,-2 -6,-10 C-4,-7 -2,7 0,18Z" fill="#FFB347"/>
    <path d="M0,18 C8,8 10,-2 6,-10 C4,-7 2,7 0,18Z" fill="#FFB347"/>
    <path d="M0,18 C-5,3 -5,-7 0,-16 C5,-7 5,3 0,18Z" fill="#FFD580"/>
    <path d="M-10,20 C-4,22 4,22 10,20 C6,24 -6,24 -10,20Z" fill="#138808"/>
    <circle cx="0" cy="20" r="3" fill="#138808"/>
    <circle cx="0" cy="20" r="1.2" fill="#FFD580"/>
  </g>
</svg>
